<?xml version="1.0" standalone="no"?>
<!DOCTYPE svg PUBLIC "-//W3C//DTD SVG 20010904//EN"
 "http://www.w3.org/TR/2001/REC-SVG-20010904/DTD/svg10.dtd">
<svg version="1.0" xmlns="http://www.w3.org/2000/svg"
 width="966.000000pt" height="966.000000pt" viewBox="0 0 966.000000 966.000000"
 preserveAspectRatio="xMidYMid meet">
<metadata>
Created by potrace 1.11, written by Peter Selinger 2001-2013
</metadata>
<g transform="translate(0.000000,966.000000) scale(0.100000,-0.100000)"
fill="#000000" stroke="none">
<path d="M2750 9033 c0 -37 0 -419 0 -848 l0 -780 27 -23 c16 -12 74 -55 130
-95 56 -40 186 -133 290 -207 103 -74 544 -388 978 -698 435 -310 799 -570
810 -577 11 -8 120 -86 242 -174 l222 -159 -142 -93 c-78 -51 -233 -153 -345
-226 -111 -73 -205 -133 -208 -133 -6 0 -118 77 -149 102 -5 5 -181 130 -390
279 -209 148 -389 277 -400 285 -11 7 -105 74 -209 148 -103 74 -198 142 -210
150 -39 29 -331 235 -346 246 -15 10 -114 80 -232 164 l-68 48 0 -874 0 -873
92 -65 c50 -36 123 -87 162 -114 84 -58 95 -66 305 -216 88 -63 161 -117 161
-120 0 -5 -209 -145 -269 -180 -14 -9 -127 -82 -251 -164 -124 -81 -257 -169
-297 -195 -70 -45 -101 -80 -89 -99 3 -5 90 -69 193 -143 103 -73 234 -167
289 -209 124 -91 212 -155 369 -266 66 -47 129 -92 140 -100 33 -24 437 -312
480 -342 22 -16 301 -214 620 -442 319 -227 650 -463 735 -524 85 -61 157
-113 160 -116 3 -3 34 -25 70 -49 36 -25 67 -48 68 -53 2 -4 7 -8 12 -8 5 0
101 -66 214 -147 113 -82 357 -256 542 -388 186 -132 362 -257 391 -278 l53
-38 0 840 0 839 -102 73 c-57 41 -108 78 -115 84 -7 5 -47 34 -90 63 -43 29
-172 121 -288 203 -115 83 -221 158 -236 167 -14 9 -141 100 -283 202 -142
102 -277 198 -300 214 -133 93 -312 221 -316 225 -3 3 -34 26 -70 51 -36 24
-69 48 -75 52 -5 5 -55 40 -110 79 -55 39 -109 77 -120 85 -11 8 -105 76 -210
150 -104 74 -199 142 -210 150 -65 47 -305 218 -329 234 l-29 18 107 71 c59
39 109 71 112 71 3 0 10 5 17 11 7 6 119 81 251 166 218 143 241 155 260 143
24 -15 376 -264 451 -320 28 -20 113 -81 190 -136 77 -54 145 -102 150 -107 6
-4 87 -62 180 -128 94 -66 180 -127 192 -137 12 -9 108 -78 213 -152 106 -74
268 -190 361 -257 94 -68 172 -123 174 -123 2 0 52 -34 110 -75 58 -41 107
-75 110 -75 3 0 5 382 5 849 l0 848 -52 36 c-29 20 -74 51 -99 69 -89 64 -242
174 -299 213 -221 155 -449 321 -450 326 0 4 55 43 123 86 67 44 280 182 472
307 193 126 352 229 354 231 6 6 -20 28 -109 91 -106 75 -419 301 -441 317 -8
7 -23 17 -32 22 -19 12 -417 296 -432 308 -5 4 -64 46 -130 93 -66 47 -129 92
-140 100 -11 8 -121 87 -245 175 -124 88 -234 167 -245 174 -11 8 -78 56 -150
107 -71 51 -134 96 -140 100 -5 5 -86 63 -180 129 -93 66 -179 127 -190 135
-11 8 -83 59 -160 114 -77 54 -158 112 -180 128 -22 16 -247 177 -500 357
-500 356 -648 464 -653 477 -2 4 -8 8 -12 8 -5 0 -39 21 -75 48 -37 26 -80 56
-95 67 -15 11 -42 30 -59 43 l-31 23 0 -68z m559 -713 c190 -136 641 -457
1001 -714 360 -257 664 -474 675 -482 11 -8 83 -59 160 -114 77 -54 145 -103
150 -107 9 -8 109 -79 249 -177 22 -16 205 -146 406 -290 201 -143 385 -274
409 -291 24 -17 43 -35 42 -40 -2 -14 -668 -452 -680 -447 -6 2 -675 478 -696
494 -10 8 -345 247 -375 268 -8 6 -278 198 -600 428 -322 229 -595 424 -607
432 -139 98 -359 255 -363 260 -3 3 -35 26 -72 50 l-67 45 -1 473 c0 343 3
471 11 466 6 -3 167 -118 358 -254z m386 -2925 c347 -247 632 -451 635 -454 3
-3 38 -28 78 -55 l72 -49 -177 -116 c-98 -64 -261 -171 -363 -237 -185 -122
-185 -122 -212 -106 -15 9 -39 25 -53 37 -14 11 -117 85 -230 165 -113 80
-272 193 -353 251 l-147 105 -3 498 -2 498 62 -44 c35 -24 347 -246 693 -493z
m2223 -255 c108 -78 207 -149 219 -158 13 -9 146 -105 298 -212 l275 -195 0
-479 c0 -519 4 -482 -45 -443 -5 4 -64 46 -130 93 -66 47 -129 92 -140 99 -11
8 -110 79 -220 157 -110 78 -204 146 -210 150 -10 9 -184 132 -285 203 -31 22
-192 137 -358 255 l-301 215 132 86 c342 225 562 369 565 369 1 0 91 -63 200
-140z m-1938 -1319 c85 -61 164 -117 175 -125 11 -8 135 -96 275 -196 140
-100 264 -188 275 -196 11 -8 135 -97 276 -197 141 -100 267 -190 280 -200 23
-17 149 -106 179 -127 60 -42 476 -339 522 -373 31 -23 212 -152 402 -287
l346 -245 0 -462 0 -462 -157 111 c-87 62 -160 114 -163 117 -3 4 -34 26 -70
51 -36 24 -69 48 -75 52 -5 4 -59 43 -120 86 -403 287 -952 678 -960 685 -5 4
-158 113 -340 242 -181 129 -339 241 -350 249 -11 8 -137 98 -280 199 -143
102 -282 201 -310 222 -27 20 -214 154 -415 297 -201 143 -373 266 -383 273
-15 11 16 34 269 201 158 104 292 191 298 193 6 2 13 7 16 10 3 4 20 16 39 28
l35 21 40 -28 c23 -15 111 -78 196 -139z"/>
</g>
</svg>
